<?xml version="1.0" encoding="UTF-8"?>
<svg id="Capa_1" data-name="Capa 1" xmlns="http://www.w3.org/2000/svg" viewBox="0 0 116.7 116.59">
  <defs>
    <style>
      .cls-1 {
        fill: #fff;
      }
    </style>
  </defs>
  <path class="cls-1" d="M116.7,116.59h-58.09c0-32.06,26.03-58.09,58.09-58.09v58.09Z"/>
  <path class="cls-1" d="M58.09,116.59H0C0,84.53,26.03,58.5,58.09,58.5v58.09Z"/>
  <path class="cls-1" d="M58.61,0h58.09c0,32.06-26.03,58.09-58.09,58.09V0Z"/>
  <path class="cls-1" d="M59.71,13.75c-1.18.22-.54,1.56-2.07,11.08-.83,5.14-3.22,12.91-6.45,18.4-2.49,4.22-5.1,7.12-8.75,11.43-3.11,3.67-8.02,6.9-9.66,8.14-7.13,5.39-11.69,8.57-11.66,9.95.11,4.75,23.1,8.52,36.49-11.33,13.7-20.31,5.57-48.32,2.11-47.67h-.01Z"/>
  <path class="cls-1" d="M56.78,101.38c1.24-.22.57-1.56,2.18-11.06.87-5.13,3.39-12.88,6.8-18.35,2.62-4.21,5.14-7.32,9.21-11.4,3.56-3.57,7.29-6.75,9.6-8.25,8.12-5.27,14.37-9.78,14.34-11.15-.12-4.74-25.81-7.15-39.91,12.65-14.43,20.26-5.87,48.2-2.22,47.56Z"/>
  <path class="cls-1" d="M0,0h58.09c0,32.06-26.03,58.09-58.09,58.09V0Z"/>
</svg>